<svg class="crocodoc-7gLDav crocodoc-page-svg" version="1.1"
    xmlns="http://www.w3.org/2000/svg"
    xmlns:xlink="http://www.w3.org/1999/xlink"
    xmlns:xhtml="http://www.w3.org/1999/xhtml"
    xml:space="preserve" width="651.855pt" height="841.776pt" viewBox="0 0 651.855 841.776">
<xhtml:link href="stylesheet.css" type="text/css" rel="stylesheet" />
<style>
svg.crocodoc-7gLDav { isolation:isolate; }
.crocodoc-7gLDav tspan { white-space:pre; direction:ltr; unicode-bidi:bidi-override; }
.crocodoc-7gLDav path { fill:transparent; }
.crocodoc-7gLDav [mbm="1"] { opacity:0; }
.crocodoc-7gLDav [mbm="2"] { opacity:0.3; }
.crocodoc-7gLDav [mbm="3"] { opacity:0.5; }
@supports (mix-blend-mode: multiply) {
.crocodoc-7gLDav [mbm] { opacity:1; }
}

.crocodoc-7gLDav .s4 { stroke:#231f20;stroke-linejoin:round;stroke-width:1.07 }
.crocodoc-7gLDav .s5 { stroke:#231f20;stroke-linejoin:round;stroke-width:0.54 }
.crocodoc-7gLDav .s6 { fill:#231f20;fill-rule:evenodd }
.crocodoc-7gLDav .s7 { stroke:#231f20;stroke-linejoin:round;stroke-width:0.25 }
</style>
<defs>

</defs>
<path style="fill:#000000" d="M0 28.23 l16.95 0 l0 -0.28 l-16.95 0 l0 0.28 z"/><path style="fill:#000000" d="M27.95 16.95 l0.28 0 l0 -16.95 l-0.28 0 l0 16.95 z"/><path style="fill:#000000" d="M623.56 16.95 l0.28 0 l0 -16.95 l-0.28 0 l0 16.95 z"/><path style="fill:#000000" d="M634.85 28.23 l17.01 0 l0 -0.28 l-17.01 0 l0 0.28 z"/><path style="fill:#000000" d="M634.85 813.77 l17.01 0 l0 -0.28 l-17.01 0 l0 0.28 z"/><path style="fill:#000000" d="M623.56 841.76 l0.28 0 l0 -16.99 l-0.28 0 l0 16.99 z"/><path style="fill:#000000" d="M27.95 841.76 l0.28 0 l0 -16.99 l-0.28 0 l0 16.99 z"/><path style="fill:#000000" d="M0 813.77 l16.95 0 l0 -0.28 l-16.95 0 l0 0.28 z"/><text class="f158" font-size="9.96" style="fill:#000000"><tspan x="98.6" y="450.7" textLength="218.8" dx="0,5.43,-0.12,-0.12,5.39,-0.14,5.41,0,5.29,-0.16,0,-0.23,0,-0.25,-0.16,0,5.33,-0.16,0,-0.27,-0.11,-0.16,0,-0.25,0,-0.24,-0.14,0,5.29,-0.14,0,-0.26,5.42,0,-0.26,0,-0.26,0,-0.25,-0.14,0,5.3">AUASisanaircraftcon&#xfb01;gurationthatgeneratesa</tspan>&#8203;<tspan x="85" y="461.7" textLength="232.5" dx="0,-0.15,0,-0.25,0,-0.24,-0.16,0,-0.25,0,-0.24,0,-0.25,0,-0.24,-0.14,-0.15,0,7.11,-0.15,0,-0.22,-0.16,0,-0.24,-0.14,0,7.1,-0.15,0,-0.25,0,-0.24,-0.14,-0.14,0,7.1,-0.15,-0.15,0,7.13,-0.14,0,-0.26,-0.2,-0.15,-0.16,0,-0.24,-0.14,0">safety-compromisedsituationresultingfromineffective</tspan>&#8203;<tspan x="85" y="472.6" textLength="232.5" dx="0,-0.14,0,-0.25,0,-0.26,3.66,0,-0.26,3.69,0,-0.25,-0.15,0,3.55,-0.13,0,-0.21,-0.16,0,-0.26,-0.13,0,-0.26,3.72,-0.16,0,3.53,-0.14,3.69,-0.11,-0.14,0,-0.27,3.66,0,-0.25,0,3.57,-0.16,0,-0.24,0,-0.76,3.63,-0.12,0">threatanderrormanagementdueto&#xfb02;ightcrewerror.The</tspan>&#8203;<tspan x="85" y="483.6" textLength="232.4" dx="0,0,-0.24,-0.14,-0.16,2.75,0,-0.26,-0.16,0,-0.24,-0.14,2.73,0,-0.26,0,-0.24,0,-0.24,2.74,-0.14,-0.16,2.73,-0.12,-0.12,2.78,-0.12,-0.14,-0.14,0,-0.27,0,2.59,0,-0.25,0,-0.26,0,-0.27,-0.14,0,-0.24,0,2.62,-0.14,-0.16,2.73,0,-0.25,-0.14,0,-0.24">pilotusuallydetectstheUASwithoutrecognizingtheorigi-</tspan>&#8203;<tspan x="85" y="494.6" textLength="232.5" dx="0,0,-0.26,2.64,-0.16,0,-0.24,-0.16,-0.43,2.61,-0.12,0,-0.24,0,2.46,0,-0.23,2.62,0,-0.27,2.64,-0.16,0,-0.26,2.62,0,2.48,0,2.51,-0.16,0,-0.25,0,-0.25,0,-0.24,-0.16,0,2.51,-0.11,-0.16,2.63,-0.16,0,-0.21,-0.13,-0.16,-0.14,0">nalerror,whichmaynotneedtobecorrected.Forexample,</tspan>&#8203;<tspan x="85" y="505.5" textLength="232.5" dx="0,-0.14,0,3.14,0,-0.26,-0.14,0,-0.24,-0.14,0,3.13,0,3.16,3.3,-0.88,0,-0.26,0,-0.26,0,-0.24,3.3,-0.14,-0.16,0,-0.27,0,-0.24,0,-0.99,3.31,-0.16,3.3,3.24,0,-0.26,0,-0.25,3.26,0,-0.25,0,-0.23,-0.16,3.3,-0.13,0">thesolutiontoa&#x2018;&#x2018;&#xfb02;oatedlanding&#x2019;&#x2019;onashortrunwaymay</tspan>&#8203;<tspan x="85" y="516.5" textLength="232.4" dx="0,0,2.97,3.13,-0.16,0,-0.25,-0.16,0,-0.25,0,-0.27,0,2.96,-0.12,0,2.97,0,-0.27,0,-0.24,0,-0.24,-0.14,0,2.99,-0.15,0,2.98,3.07,0,-0.25,0,-0.23,-0.16,0,2.97,0,-0.27,0,-0.24,0,-0.24,3.07,0,-0.23,0,-0.26">beago-around.Thepotentialforaseriousoutcomemeans</tspan>&#8203;<tspan x="85" y="527.5" textLength="121.5" dx="0,-0.14,0,-0.26,3.21,-0.12,-0.12,3.18,0,-0.23,0,-0.26,0,-0.26,-0.13,0,-0.21,3.15,-0.14,3.19,0,-0.24,-0.14,0,-0.24">thatUASmanagementisvital.</tspan>&#8203;<tspan x="85" y="569" textLength="182.8" class="f163" font-size="11.96" dx="0,0,0,0,0,0,4.02,0,0,4.04,0,0,0,0,3.98,0,0,0,0,0.09,0,0,0,0,0,0,0,0,0">ThreatandErrorCountermeasures</tspan>&#8203;<tspan x="85" y="590.6" textLength="232.5" dx="0,-0.12,-0.16,2.79,-0.12,-0.18,2.81,-0.13,-0.16,0,-0.26,2.75,0,-0.25,0,-0.27,-0.14,0,-0.26,2.79,2.73,-0.16,0,-0.25,0,-0.26,0,2.64,0,-0.26,-0.15,2.79,-0.15,0,2.64,-0.16,0,-0.27,0,-0.25,-0.15,0,-0.24,0,-0.27,-0.14,0">TheTEMmodelprovidedabroaderbaseforunderstanding</tspan>&#8203;<tspan x="85" y="601.6" textLength="232.4" dx="0,-0.12,-0.12,3.15,0,-0.21,-0.15,-0.15,0,-0.25,-0.13,0,-0.26,0,3.08,-0.15,0,-0.24,-0.14,-0.14,0,3.03,0,-0.24,-0.15,3.18,0,-0.26,0,-0.25,0,-0.23,-0.16,0,3.08,-0.16,3.19,-0.14,0,-0.25,-0.16,0,3.05,0,-0.21,3.13,0,-0.25,0,-0.25">CRMperformanceskills,alsodescribedasthreatanderror</tspan>&#8203;<tspan x="85" y="612.6" textLength="232.4" dx="0,0,-0.26,0,-0.27,-0.14,0,-0.25,-0.13,0,-0.26,0,-0.26,0,-0.25,0,2.57,-0.12,0,-0.24,0,2.57,0,-0.25,2.73,-0.16,0,-0.25,2.73,-0.14,2.73,-0.16,0,-0.24,-0.14,0,-0.24,-0.16,0,-0.24,2.73,-0.14,0,-0.25,-0.16,0,-0.24,0,2.57,0,-0.26,0,-0.24">countermeasures,whichareusedtoanticipatethreats,avoid</tspan>&#8203;<tspan x="85" y="623.5" textLength="232.4" dx="0,0,-0.25,-0.15,0,-0.25,-0.15,5.62,-0.16,0,5.46,0,-0.21,-0.14,-0.16,0,5.49,-0.16,0,5.46,0,-0.21,-0.14,-0.14,0,-0.26,-0.14,5.62,-0.16,0,-0.21,-0.16,-0.14,0,-0.23,-0.16,0,-0.24,0,-0.25,5.58,-0.14,0,-0.26,5.64,-0.16,0,-0.26,0,-0.76">errors,anddetectandmitigateevents/errorsthatoccur.</tspan>&#8203;<tspan x="85" y="634.5" textLength="232.5" dx="0,-0.12,-0.16,0,-0.25,0,-0.25,0,3.87,-0.14,0,3.87,-0.14,4.03,-0.14,-0.16,4.04,-0.16,0,-0.26,0,-0.24,0,-0.27,-0.13,0,-0.21,4,-0.16,3.99,0,3.87,0,-0.25,0,3.91,-0.16,0,-0.27,0,-0.24,-0.16,0,-0.22,-0.16,0">Researchledtothedevelopmentof12crewcountermea-</tspan>&#8203;<tspan x="85" y="645.4" textLength="232.5" dx="0,-0.15,0,-0.25,0,2.92,-0.14,3.01,0,-0.25,0,2.92,-0.16,-0.14,0,-0.27,0,2.93,-0.14,0,-0.26,0,2.93,-0.16,0,-0.24,-0.14,-0.16,0,-0.22,-0.14,0,-0.25,3.04,-0.14,-0.16,0,2.94,-0.16,0,-0.22,-0.13,0,-0.24,-0.16,3.01,0,-0.24,0,-0.26,0,-0.24,-0.16,0">suresinfourhigherlevelactivities:teamclimate,planning,</tspan>&#8203;<tspan x="85" y="656.4" textLength="232.5" dx="0,0,-0.26,0,-0.26,0,-0.24,-0.14,0,-0.27,7.66,0,-0.26,7.72,-0.15,0,-0.26,-0.14,0,-0.23,-0.14,-0.13,0,-0.27,0,-0.25,0,-0.26,0,-0.22,-0.16,7.72,-0.15,-0.12,-0.16,0,-0.21,-0.15,0,-0.24,-0.16,0,7.55,0,-0.27,0,-0.27,0">execution,andreview/modi&#xfb01;cation(Helmreich,2001).</tspan>&#8203;<tspan x="85" y="667.4" textLength="211.5" dx="0,-0.75,-0.16,0,-0.24,3.19,3.18,0,-0.27,0,-0.22,-0.14,-0.16,0,3.09,-0.14,0,3.08,-0.14,-0.16,0,-0.25,0,3.1,-0.16,0,3.08,-0.16,0,-0.24,0,3.09,-0.16,0,-0.27,0,-0.24,-0.16,0,-0.22,-0.16,0,-0.25,0,-0.25,0,-0.25">Table1outlinesthethreatanderrorcountermeasures.</tspan>&#8203;<tspan x="85" y="708.9" textLength="139.6" class="f163" font-size="11.96" dx="0,0,0,0,4.03,0,3.97,0,0,4.01,0,0,0,0,0,0,4.04,0,0,0,0">AimsoftheCurrentStudy</tspan>&#8203;<tspan x="85" y="730.5" textLength="232.5" dx="0,-0.12,-0.16,3.81,-0.11,-0.15,0,3.68,-0.16,0,3.7,-0.12,0,3.66,-0.14,3.81,0,-0.26,-0.14,0,-0.25,-0.13,0,-0.24,3.81,-0.12,-0.16,0,-0.24,0,-0.26,3.82,3.75,0,-0.23,-0.16,0,-0.24,0,-0.25,0,-0.24,-0.14,0,3.67,-0.14,-0.14,0">The&#xfb01;rstaimwastodeterminewhetherasingle-pilotline</tspan>&#8203;<tspan x="85" y="741.5" textLength="232.4" dx="0,0,-0.27,0,-0.25,-0.16,0,-0.22,-0.16,0,4.51,0,-0.25,0,-0.25,-0.14,4.66,-0.16,0,-0.27,0,4.54,-0.15,-0.12,-0.12,-0.11,-0.12,-0.15,-0.11,-0.11,4.62,-0.16,0,-0.27,0,4.52,0,4.5,0,-0.26,0,-0.26,0,-0.25,-0.15,0,-0.25,0,-0.22">operationssafetyaudit(LOSA-SP)couldbesuccessfully</tspan>&#8203;<tspan x="85" y="752.5" textLength="232.5" dx="0,0,-0.26,0,-0.26,-0.14,0,-0.27,0,2.63,-0.16,0,2.57,0,-0.26,0,2.57,0,2.58,2.73,-0.16,0,-0.25,-0.14,2.74,-0.15,0,2.58,-0.15,0,-0.26,0,-0.24,-0.13,0,-0.24,-0.14,2.73,-0.16,0,-0.24,2.73,-0.16,0,-0.24,-0.14,0,-0.26,-0.14,-0.14,0">developedandusedasabasisforsystematicdatacollection</tspan></text><text class="f158" font-size="9.96" style="fill:#000000"><tspan x="334.4" y="450.7" textLength="232.4" dx="0,-0.14,2.5,2.51,-0.15,0,-0.24,0,-0.24,-0.16,0,-0.25,-0.14,0,-0.24,2.53,-0.16,0,-0.26,0,-0.25,-0.14,0,-0.24,0,-0.26,2.53,-0.16,0,-0.27,0,-0.23,-0.16,0,-0.24,0,-0.26,-0.14,2.5,2.54,-0.15,-0.14,0,-0.27,0,-0.24,0,-0.25,-0.14,-0.14,0,2.42,-0.16,0,-0.36">inasingle-pilotoperationalenvironment.Asingle-pilotver-</tspan>&#8203;<tspan x="334.4" y="461.7" textLength="232.4" dx="0,-0.14,0,-0.24,2.84,0,2.75,-0.14,0,2.74,-0.12,-0.14,-0.14,2.03,-0.12,0,2.75,0,-0.26,0,-0.24,-0.14,0,2.74,0,-0.26,2.9,-0.14,-0.14,-0.14,0,-0.24,0,2.74,-0.12,-0.14,-0.14,2.9,-0.14,-0.14,2.84,0,-0.27,0,-0.25,0,-0.25">sionoftheLOSAwasdevisedandtrialedwithtwoobserv-</tspan>&#8203;<tspan x="334.4" y="472.7" textLength="232.5" dx="0,0,-0.25,2.51,0,-0.24,0,-0.24,-0.14,0,-0.25,-0.14,0,2.4,2.56,0,-0.25,-0.13,0,-0.24,2.56,-0.16,2.57,-0.16,0,-0.22,-0.16,-0.14,2.57,-0.11,-0.16,-0.14,0,2.45,-0.16,0,-0.25,-0.14,0,-0.27,2.57,-0.15,0,-0.26,0,-0.24,-0.15,0,2.46,-0.18,0">ersmonitoringasampleofpilots&#xfb02;yingvarioussectors.The</tspan>&#8203;<tspan x="334.4" y="483.6" textLength="232.4" dx="0,-0.15,0,-0.26,0,-0.27,2.39,0,-0.24,2.36,-0.12,0,2.24,-0.14,2.39,-0.16,0,-0.24,-0.16,0,-0.22,-0.14,0,2.23,-0.12,0,-0.26,-0.14,0,-0.21,2.35,-0.14,0,2.23,-0.12,-0.12,2.35,-0.13,0,-0.21,-0.16,2.36,0,-0.26,0,-0.24">secondaimwastodeterminewhethertheTEMmodelcould</tspan>&#8203;<tspan x="334.4" y="494.6" textLength="232.4" dx="0,0,2.57,0,-0.26,-0.16,2.73,0,2.58,-0.14,0,2.57,0,-0.26,0,-0.26,0,-0.26,0,-0.24,0,2.59,-0.16,0,-0.25,-0.14,2.74,-0.15,0,2.58,0,-0.26,-0.14,2.73,-0.16,0,-0.24,-0.14,0,-0.26,0,-0.22,-0.16,2.73,-0.16,0,2.57,0,-0.26,0,-0.24">beusedastheconceptualbasisfordatacollectionandanal-</tspan>&#8203;<tspan x="334.4" y="505.5" textLength="232.4" dx="0,0,-0.26,-0.14,-0.15,3.41,-0.12,-0.16,3.41,-0.15,-0.16,0,-0.2,-0.14,-0.17,3.41,-0.16,-0.14,3.44,-0.16,0,-0.25,3.36,-0.12,0,3.26,-0.14,3.41,-0.16,0,-0.24,-0.16,0,-0.22,-0.14,0,3.25,-0.12,0,-0.26,-0.14,0,-0.26,3.43,-0.16,-0.14,0,-0.24">ysis.Thespeci&#xfb01;caimherewastodeterminewhetherpilot</tspan>&#8203;<tspan x="334.4" y="516.5" textLength="232.5" dx="0,0,-0.26,-0.15,0,-0.25,0,-0.22,-0.16,0,-0.26,3.7,-0.16,0,-0.27,-0.14,3.69,-0.16,3.64,0,-0.25,0,-0.24,3.64,0,-0.26,-0.14,0,3.53,-0.15,0,-0.21,3.65,-0.15,-0.14,0,-0.26,0,-0.26,0,3.55,-0.14,0,-0.25,-0.16,0,3.56,-0.16,0">performancecouldberatedusingfourstandardthreatand</tspan>&#8203;<tspan x="334.4" y="527.5" textLength="126.6" dx="0,0,-0.25,-0.15,0,3.09,-0.16,0,-0.27,0,-0.24,0,-0.25,-0.13,0,-0.26,0,-0.26,-0.15,3.24,-0.16,0,-0.24,-0.16,0,-0.27,0,-0.23,-0.16,0">errorcountermeasurecategories.</tspan></text><text class="f158" font-size="9.96" style="fill:#000000"><tspan x="334.4" y="575.1" textLength="48.1" class="f163" font-size="13.95">Method</tspan>&#8203;<tspan x="334.4" y="598.8" textLength="117.3" class="f163" font-size="11.96" dx="0,0,0,0,0,0,0,4.01,0,0,0,0,0,0,0,0,0.1,0">LOSA-SPMethodology</tspan>&#8203;<tspan x="334.4" y="620.4" textLength="232.4" dx="0,-0.75,2.96,-0.15,0,-0.26,0,-0.22,-0.14,-0.14,0,-0.24,2.96,-0.14,0,2.85,-0.16,0,-0.34,0,-0.25,-0.15,0,-0.26,0,-0.2,2.97,-0.16,0,-0.27,-0.14,-0.14,0,-0.2,-0.16,-0.14,2.96,0,2.87,-0.15,-0.14,0,-0.27,0,-0.24,-0.15,0,-0.24,-0.14,0,2.87,-0.16,0,-0.26,0,-0.25">Tofacilitatethedifferencesapplicabletosingle-pilotopera-</tspan>&#8203;<tspan x="334.4" y="631.4" textLength="232.5" dx="0,-0.14,-0.14,0,-0.27,0,4.27,-0.16,0,-0.21,-0.14,-0.14,0,-0.24,-0.14,0,-0.27,4.38,-0.14,0,-0.25,4.38,-0.14,0,-0.26,4.43,-0.14,4.37,-0.14,0,4.27,-0.12,-0.14,-0.14,4.41,-0.13,0,-0.24,-0.14,0,-0.21,-0.16,-0.14,0,-0.27,-0.73">tions,adaptationsweremadetotheLOSAmethodology,</tspan>&#8203;<tspan x="334.4" y="642.4" textLength="232.4" dx="0,-0.14,0,-0.26,-0.14,0,-0.21,-0.14,-0.16,3.75,-0.15,0,-0.26,-0.14,0,-0.23,-0.16,3.75,-0.15,0,-0.24,3.75,-0.16,0,-0.24,0,3.6,-0.16,0,-0.24,0,-0.26,0,-0.25,-0.14,0,-0.25,3.75,-0.12,-0.12,-0.17,3.73,0,-0.24,0,-0.24,-0.16,0,-0.24,0,-0.25">includingrevisingsomeerrorcategories.LOSAindicators</tspan>&#8203;<tspan x="334.4" y="653.3" textLength="232.5" dx="0,0,-0.26,-0.15,0,3.93,0,3.93,-0.14,0,3.93,-0.12,-0.12,4.05,-0.15,-0.15,0,-0.23,0,-0.23,-0.16,0,3.94,-0.12,-0.16,0,3.95,-0.15,0,-0.24,0,-0.24,-0.16,0,3.93,0,-0.27,4.06,-0.16,0,-0.24,0,-0.26,-0.14,0">basedontheTEMframeworkwereretainedbutadjusted</tspan>&#8203;<tspan x="334.4" y="664.3" textLength="232.4" dx="0,-0.14,2.96,-0.15,0,-0.24,2.92,0,-0.23,-0.16,0,-0.24,0,-0.25,0,-0.24,-0.14,-0.16,2.98,-0.16,0,-0.26,0,-0.25,0,-0.22,-0.16,0,-0.26,2.95,-0.12,-0.16,2.96,-0.12,0,-0.24,-0.16,0,-0.25,0,-0.23,-0.14,2.96,-0.16,2.97,-0.75,-0.16,0,-0.26,2.97,-0.16,0,-0.25">tosuitsingle-pilotoperations.TheUniversityofTexaspro-</tspan>&#8203;<tspan x="334.4" y="675.3" textLength="232.4" dx="0,0,-0.27,-0.15,0,2.4,0,2.4,-0.16,0,-0.26,0,-0.25,-0.14,-0.14,0,2.4,0,-0.26,0,-0.25,-0.16,0,-0.24,0,-0.25,-0.14,0,-0.23,-0.14,0,2.36,0,-0.21,-0.16,-0.14,0,-0.22,0,-0.24,-0.16,0,2.39,-0.16,0,-0.27,0,2.41,-0.16,0,-0.23,-0.14,-0.14,0,-0.26">posed10operatingcharacteristics(Helmreich,2001)critical</tspan>&#8203;<tspan x="334.4" y="686.2" textLength="232.5" dx="0,-0.14,3.13,0,-0.26,0,-0.26,0,-0.25,0,-0.24,-0.16,3.15,-0.14,0,-0.24,-0.14,0,-0.23,0,-0.26,-0.14,0,-0.24,-0.14,0,3.02,-0.16,3.14,3.13,-0.12,-0.12,-0.11,-0.12,3.12,-0.12,0,-0.24,0,3.02,-0.16,0,-0.26,3.13,0,-0.26,0">tosuccessfulimplementationofaLOSA,whichhavebeen</tspan>&#8203;<tspan x="334.4" y="697.2" textLength="232.5" dx="0,0,-0.26,0,-0.27,-0.14,0,4.27,0,-0.26,4.43,-0.16,0,-0.27,0,-0.25,0,-0.25,4.37,0,4.27,0,-0.24,4.43,-0.15,-0.16,0,-0.24,-0.15,0,-0.21,-0.14,-0.14,-0.16,0,-0.21,4.4,-0.17,0,-0.24,-0.14,4.4,-0.8,-0.16,-0.14,0,-0.24,-0.14,0">adoptedandendorsedbytheInternationalCivilAviation</tspan>&#8203;<tspan x="334.4" y="708.2" textLength="232.4" dx="0,-0.12,-0.2,-0.16,0,-0.26,-0.14,0,-0.26,0,-0.22,-0.16,2.84,0,-0.24,-0.12,-0.12,-0.12,2.86,-0.15,-0.16,0,-0.27,0,-0.25,2.84,-0.12,0,-0.26,0,2.7,-0.12,0,-0.25,2.85,-0.15,0,-0.21,-0.14,-0.14,-0.16,0,-0.24,0,2.74,-0.15,-0.16,2.86,-0.15,0,-0.24">Organization(ICAO)(2002).Thesewerereplicatedforsin-</tspan>&#8203;<tspan x="334.4" y="719.1" textLength="232.4" dx="0,0,-0.24,-0.16,0,-0.25,-0.14,0,-0.24,3.72,-0.16,0,-0.26,0,-0.25,-0.14,-0.14,0,-0.21,-0.15,3.69,-0.12,-0.16,3.7,-0.12,-0.12,-0.11,-0.12,-0.15,-0.11,3.69,-0.16,0,-0.24,-0.14,0,-0.26,0,-0.24,3.69,0,-0.26,-0.14,3.7,0,3.59,-0.16,-0.14,0,-0.24">gle-pilotoperations.TheLOSA-SPcollecteddataonpilot</tspan>&#8203;<tspan x="334.4" y="730" textLength="232.4" dx="0,0,-0.26,-0.13,0,-0.27,0,-0.25,0,-0.27,-0.14,0,-0.25,5.05,-0.14,0,-0.25,0,-0.26,5.08,-0.16,0,-0.26,0,-0.25,0,-0.25,0,-0.26,5.06,0,-0.26,5.05,-0.14,0,-0.25,-0.16,0,4.92,0,-0.23,0,-0.26,0,-0.26,0,-0.23,0,-0.24">demographics,threatoccurrenceandthreatmanagement,</tspan>&#8203;<tspan x="334.4" y="741" textLength="232.4" dx="0,0,-0.25,-0.15,0,2.13,0,-0.26,0,-0.21,-0.15,-0.15,0,-0.26,0,2.18,-0.16,0,2.11,0,-0.25,0,-0.25,2.29,-0.13,0,-0.26,0,-0.26,0,-0.23,-0.16,0,-0.24,2.27,0,-0.26,2.28,-0.12,-0.12,2.24,0,-0.36,0,-0.25,0,-0.24,-0.14,0,-0.26">erroroccurrenceanderrormanagement,andCRMeffective-</tspan>&#8203;<tspan x="334.4" y="752" textLength="180.9" dx="0,0,-0.26,-0.15,0,3.08,-0.14,0,-0.25,-0.16,0,-0.21,3.18,-0.12,-0.18,0,-0.23,0,-0.26,0,-0.25,3.18,0,-0.26,0,-0.26,0,-0.24,0,-0.25,-0.16,3.21,-0.13,0,-0.25,0,-0.26,0,-0.24">ness,throughTEM-basedbehavioralmarkers.</tspan></text><path style="fill:#ffffff" d="M84.98 421.29 l481.89 0 l0 -322.87 l-481.89 0 l0 322.87 z"/><path style="fill:#e4e4e4" d="M260.46 119.57 l91.83 0 l0 -20.63 l-91.83 0 l0 20.63 z"/><path class="s4" d="M260.46 119.57 l91.83 0 l0 -20.63 l-91.83 0 l0 20.63 z"/><text class="f123" font-size="6.34" style="fill:#231f20"><tspan x="296" y="112.1" textLength="18.3">Threat</tspan></text><path class="s5" d="M306.79 120.24 l0 11.16"/><path class="s6" d="M307.18 136.78 l-2.99 -7.1 l5.87 0 l-2.88 7.1"/><path class="s7" d="M307.18 136.78 l-2.99 -7.1 l5.87 0 l-2.88 7.1 z"/><path style="fill:#e4e4e4" d="M259.89 159.63 l93.02 0 l0 -20.63 l-93.02 0 l0 20.63 z"/><path class="s4" d="M259.89 159.63 l93.02 0 l0 -20.63 l-93.02 0 l0 20.63 z"/><text class="f123" font-size="6.34" style="fill:#231f20"><tspan x="272.4" y="148.1" textLength="57.1">Threat Management</tspan>&#8203;<tspan x="268" y="156.2" textLength="64.1">(Diagnosis / Recovery)</tspan></text><path class="s5" d="M454.39 247.55 l0 64.38"/><path class="s6" d="M454.78 242.78 l2.99 7.11 l-5.87 0 l2.88 -7.11"/><path class="s7" d="M454.78 242.78 l2.99 7.11 l-5.87 0 l2.88 -7.11 z"/><path style="fill:#e4e4e4;fill-rule:evenodd" d="M419.24 149.39 c0 7.03 6.88 12.68 15.34 12.68 l89.14 0 c8.47 0 15.34 -5.65 15.34 -12.68 c0 -7.08 -6.87 -12.75 -15.34 -12.75 l-89.14 0 c-8.47 0 -15.34 5.67 -15.34 12.69"/><path class="s4" d="M419.24 149.39 c0 7.03 6.88 12.68 15.34 12.68 l89.14 0 c8.47 0 15.34 -5.65 15.34 -12.68 c0 -7.08 -6.87 -12.75 -15.34 -12.75 l-89.14 0 c-8.47 0 -15.34 5.67 -15.34 12.69 z"/><text class="f123" font-size="6.34" style="fill:#231f20"><tspan x="456.2" y="148.1" textLength="38.8">Threat Linked</tspan>&#8203;<tspan x="447.2" y="156.2" textLength="51.8">Incident / Accident</tspan></text><path style="fill:#e4e4e4" d="M298.72 239.74 l95.43 0 l0 -20.61 l-95.43 0 l0 20.61 z"/><path class="s4" d="M298.72 239.74 l95.43 0 l0 -20.61 l-95.43 0 l0 20.61 z"/><text class="f123" font-size="6.34" style="fill:#231f20"><tspan x="314.9" y="228.3" textLength="52.9">Error Management</tspan>&#8203;<tspan x="308" y="236.4" textLength="64.1">(Diagnosis / Recovery)</tspan></text><path style="fill:#e4e4e4" d="M300.23 279.31 l94.21 0 l0 -20.61 l-94.21 0 l0 20.61 z"/><path class="s4" d="M300.23 279.31 l94.21 0 l0 -20.61 l-94.21 0 l0 20.61 z"/><text class="f123" font-size="6.34" style="fill:#231f20"><tspan x="318.8" y="267.8" textLength="48.3">Crew error linked</tspan>&#8203;<tspan x="306.5" y="275.9" textLength="67.3">Undesired Aircraft State</tspan></text><path class="s5" d="M346.24 279.98 l0 11.16"/><path class="s6" d="M346.62 296.55 l-2.99 -7.1 l5.88 0 l-2.89 7.1"/><path class="s7" d="M346.62 296.55 l-2.99 -7.1 l5.88 0 l-2.89 7.1 z"/><path class="s5" d="M306.79 160.3 l0 10.15"/><path class="s6" d="M307.18 175.84 l-2.99 -7.11 l5.87 0 l-2.88 7.11"/><path class="s7" d="M307.18 175.84 l-2.99 -7.11 l5.87 0 l-2.88 7.11 z"/><path class="s5" d="M346.83 240.44 l0 11.16"/><path class="s6" d="M347.21 256.99 l-2.99 -7.11 l5.87 0 l-2.88 7.11"/><path class="s7" d="M347.21 256.99 l-2.99 -7.11 l5.87 0 l-2.88 7.11 z"/><path class="s5" d="M346.83 322.08 l0 12.68"/><path class="s6" d="M347.21 340.15 l-2.99 -7.1 l5.87 0 l-2.88 7.1"/><path class="s7" d="M347.21 340.15 l-2.99 -7.1 l5.87 0 l-2.88 7.1 z"/><path style="fill:#e4e4e4" d="M299.12 324.12 l94.72 0 l0 -25.79 l-94.72 0 l0 25.79 z"/><path class="s4" d="M299.12 324.12 l94.72 0 l0 -25.79 l-94.72 0 l0 25.79 z"/><text class="f123" font-size="6.34" style="fill:#231f20"><tspan x="305.6" y="305.9" textLength="67.3">Undesired Aircraft State</tspan>&#8203;<tspan x="324.4" y="314.1" textLength="37">Management</tspan>&#8203;<tspan x="308" y="322.2" textLength="64.1">(Diagnosis / Recovery)</tspan></text><path class="s5" d="M323.83 207.46 l0 12.19"/><path class="s6" d="M324.21 202.72 l3 7.11 l-5.88 0 l2.88 -7.11"/><path class="s7" d="M324.21 202.72 l3 7.11 l-5.88 0 l2.88 -7.11 z"/><path class="s5" d="M394.04 311.44 l60.97 0"/><path style="fill:#e4e4e4;fill-rule:evenodd" d="M115.05 149.39 c0 7.03 6.88 12.68 15.35 12.68 l89.13 0 c8.47 0 15.34 -5.65 15.34 -12.68 c0 -7.08 -6.88 -12.75 -15.34 -12.75 l-89.13 0 c-8.47 0 -15.35 5.67 -15.35 12.69"/><path class="s4" d="M115.05 149.39 c0 7.03 6.88 12.68 15.35 12.68 l89.13 0 c8.47 0 15.34 -5.65 15.34 -12.68 c0 -7.08 -6.88 -12.75 -15.34 -12.75 l-89.13 0 c-8.47 0 -15.35 5.67 -15.35 12.69 z"/><text class="f123" font-size="6.34" style="fill:#231f20"><tspan x="149.2" y="152.3" textLength="44.4">Inconsequential</tspan></text><path style="fill:#e4e4e4;fill-rule:evenodd" d="M285.38 355.37 c0 7.1 6.96 12.86 15.54 12.86 l88.85 0 c8.56 0 15.53 -5.76 15.53 -12.86 c0 -7.08 -6.96 -12.84 -15.53 -12.84 l-88.85 0 c-8.57 0 -15.54 5.76 -15.54 12.84"/><path class="s4" d="M285.38 355.37 c0 7.1 6.96 12.86 15.54 12.86 l88.85 0 c8.56 0 15.53 -5.76 15.53 -12.86 c0 -7.08 -6.96 -12.84 -15.53 -12.84 l-88.85 0 c-8.57 0 -15.54 5.76 -15.54 12.84 z"/><text class="f123" font-size="6.34" style="fill:#231f20"><tspan x="315" y="354.2" textLength="51.1">Crew Error Linked</tspan>&#8203;<tspan x="313.5" y="362.3" textLength="51.8">Incident / Accident</tspan></text><path class="s5" d="M246.44 149.66 l13.45 0"/><path class="s6" d="M240.84 149.99 l8.37 -2.53 l0 5.06 l-8.37 -2.53"/><path class="s7" d="M240.84 149.99 l8.37 -2.53 l0 5.06 l-8.37 -2.53 z"/><path class="s5" d="M353.7 149.66 l55.88 0"/><path class="s6" d="M415.95 149.99 l-8.37 2.53 l0 -5.06 l8.37 2.53"/><path class="s7" d="M415.95 149.99 l-8.37 2.53 l0 -5.06 l8.37 2.53 z"/><path class="s5" d="M246.44 229.78 l52.28 0"/><path class="s6" d="M240.84 230.1 l8.37 -2.53 l0 5.06 l-8.37 -2.53"/><path class="s7" d="M240.84 230.1 l8.37 -2.53 l0 5.06 l-8.37 -2.53 z"/><path class="s5" d="M248.03 311.5 l51.09 0"/><path class="s6" d="M242.43 311.83 l8.36 -2.53 l0 5.08 l-8.36 -2.55"/><path class="s7" d="M242.43 311.83 l8.36 -2.53 l0 5.08 l-8.36 -2.55 z"/><path style="fill:#e4e4e4" d="M420.03 239.74 l64.34 0 l0 -20.61 l-64.34 0 l0 20.61 z"/><path class="s4" d="M420.03 239.74 l64.34 0 l0 -20.61 l-64.34 0 l0 20.61 z"/><text class="f123" font-size="6.34" style="fill:#231f20"><tspan x="435.6" y="228.3" textLength="27.8">Additional</tspan>&#8203;<tspan x="434.4" y="236.4" textLength="30.6">Crew Error</tspan></text><path style="fill:#e4e4e4;fill-rule:evenodd" d="M113.87 229.53 c0 7.01 6.88 12.68 15.35 12.68 l89.14 0 c8.47 0 15.34 -5.66 15.34 -12.68 c0 -7.11 -6.87 -12.77 -15.34 -12.77 l-89.14 0 c-8.47 0 -15.35 5.67 -15.35 12.68"/><path class="s4" d="M113.87 229.53 c0 7.01 6.88 12.68 15.35 12.68 l89.14 0 c8.47 0 15.34 -5.66 15.34 -12.68 c0 -7.11 -6.87 -12.77 -15.34 -12.77 l-89.14 0 c-8.47 0 -15.35 5.67 -15.35 12.68 z"/><text class="f123" font-size="6.34" style="fill:#231f20"><tspan x="148" y="232.5" textLength="44.4">Inconsequential</tspan></text><path style="fill:#e4e4e4;fill-rule:evenodd" d="M115.05 309.65 c0 7.04 6.88 12.68 15.35 12.68 l89.13 0 c8.47 0 15.34 -5.65 15.34 -12.68 c0 -7.08 -6.88 -12.75 -15.34 -12.75 l-89.13 0 c-8.47 0 -15.35 5.67 -15.35 12.68"/><path class="s4" d="M115.05 309.65 c0 7.04 6.88 12.68 15.35 12.68 l89.13 0 c8.47 0 15.34 -5.65 15.34 -12.68 c0 -7.08 -6.88 -12.75 -15.34 -12.75 l-89.13 0 c-8.47 0 -15.35 5.67 -15.35 12.68 z"/><text class="f123" font-size="6.34" style="fill:#231f20"><tspan x="149.2" y="312.6" textLength="44.4">Inconsequential</tspan></text><path class="s5" d="M394.95 224.47 l18.11 0"/><path class="s6" d="M419.43 224.79 l-8.38 2.53 l0 -5.09 l8.38 2.56"/><path class="s7" d="M419.43 224.79 l-8.38 2.53 l0 -5.09 l8.38 2.56 z"/><path class="s5" d="M400.9 235.1 l19.13 0"/><path class="s6" d="M395.33 235.44 l8.36 -2.53 l0 5.06 l-8.36 -2.53"/><path class="s7" d="M395.33 235.44 l8.36 -2.53 l0 5.06 l-8.36 -2.53 z"/><path style="fill:#e4e4e4" d="M350.13 198.68 l64.32 0 l0 -20.63 l-64.32 0 l0 20.63 z"/><path class="s4" d="M350.13 198.68 l64.32 0 l0 -20.63 l-64.32 0 l0 20.63 z"/><text class="f123" font-size="6.34" style="fill:#231f20"><tspan x="360" y="187.2" textLength="37.4">Spontaneous</tspan>&#8203;<tspan x="364.5" y="195.3" textLength="30.6">Crew Error</tspan></text><path class="s5" d="M382.7 199.35 l0 9.64"/><path class="s6" d="M385.97 207.3 l-5.88 0 l3 7.1 l2.88 -7.1"/><path class="s7" d="M385.97 207.3 l-5.88 0 l3 7.1 l2.88 -7.1 z"/><path style="fill:#e4e4e4" d="M274.51 198.68 l64.95 0 l0 -20.63 l-64.95 0 l0 20.63 z"/><path class="s4" d="M274.51 198.68 l64.95 0 l0 -20.63 l-64.95 0 l0 20.63 z"/><text class="f123" font-size="6.34" style="fill:#231f20"><tspan x="284.1" y="187.2" textLength="38.8">Threat Linked</tspan>&#8203;<tspan x="289.2" y="195.3" textLength="30.6">Crew Error</tspan></text><path class="s5" d="M307.41 199.35 l0 12.68"/><path class="s6" d="M310.67 210.31 l-5.87 0 l2.99 7.1 l2.88 -7.1"/><path class="s7" d="M310.67 210.31 l-5.87 0 l2.99 7.1 l2.88 -7.1 z"/><text class="f158" font-size="9.96" style="fill:#000000"><tspan x="85" y="387.8" textLength="39.1" class="f170" dx="0,0,0,0,0,-0.28,5.06,0">Figure1.</tspan>&#8203;<tspan x="129.1" y="387.8" textLength="437.6" dx="0,0,0,5.06,0,0,0,0,0,5.11,0,0,5.07,0,0,0,0,5.14,0,0,0,0,0,0,0,0,0,5.17,0,0,0,0,5.09,0,0,0,0.09,0,5.02,0,0,0,0.07,0,0,5.1,0,0,0,5.08,-0.71,0,0,0,0,5.11,0,0,0,0,0,0.09,0,0,0,5.06,0,0,0,0,0.1,5.05,0,0,0,0,5.08,0,0,0,0,0,0">Thethreatanderrormanagementmodel(TEM).Adaptedfrom&#x2018;&#x2018;Lineoperationssafetyaudit(LOSA):</tspan>&#8203;<tspan x="85" y="398.7" textLength="387.5" dx="0,0,0,0,0,0.1,0,0,0,2.46,0,0,2.41,0,0,0,0,0,0.09,0,0,2.43,0.07,0,0,0,0,0,0,0,0,0,0.13,0,0,0,0,0,-0.67,2.4,0,2.45,0,2.46,0,2.44,0,0,0,0,0,0,0.12,2.39,-1.02,2.44,0,2.44,0,0,0,0,0,-0.58,2.44,2.42,0,2.5,0,0,0,0,0,0,0,0,0,2.54,0,0,0,0,2.47,0">De&#xfb01;nitionandoperatingcharacteristics,&#x2019;&#x2019;byJ.R.Klinect,P.S.Murray,&amp;R.Helmreich,2003,In</tspan>&#8203;<tspan x="474.9" y="398.7" textLength="86.2" class="f170" dx="0,0,-0.27,0,0,0,0,0,0.08,0,0,2.42,0,2.48,0,0,2.43,0">Proceedingsofthe12</tspan></text><text class="f170" font-size="7.47" style="fill:#000000" transform="matrix(1,0,0,0.8888,0,0)"><tspan x="561.1" y="443.6" textLength="5.8">th</tspan></text><text class="f158" font-size="9.96" style="fill:#000000"><tspan x="85" y="409.7" textLength="205.9" class="f170" dx="0,0,0,0,0,0,0.1,0,0,0,0,0,0,5.06,0,0,0,0,0,0,0,0.08,4.98,0,5,-0.52,0,0,0,0.08,0,0,4.98,0,0,0,0.09,0,0,0,0,0">InternationalSymposiumonAviationPsychology</tspan>&#8203;<tspan x="295.9" y="409.7" textLength="270.9" dx="0,0,0,0,5.03,0,0,0,0,0,0,0,0.08,4.99,0,0,0,0,0,0,5.05,0,0,5.06,0,0,0,5.03,0,0,0,0,5.02,0,0,0,0.09,0,0,0,0,0,-0.55,4.94,0,0,0.07,0,0,0,0,0,0">(pp.663&#x2013;668).Dayton,OH:OhioStateUniversity.Reproduced</tspan>&#8203;<tspan x="85" y="420.7" textLength="304.7" dx="0,0,0,0,0,0.08,0,0,3.33,0,3.38,0,0,3.34,0,0,0,3.37,0,0,0,0,0,0.09,0,0,0,0,0,0,0,3.42,0,0,0,0,0,0,0.08,0,3.33,0,0,0,3.38,0,0,0,3.37,0,0,0,0,0,0.09,0,0,0,0,0,0,0">courtesyoftheLOSACollaborative.Copyright2003LOSACollaborative.</tspan></text><path style="fill:#b2b2b2" d="M84.98 76.48 l481.89 0 l0 -5.67 l-481.89 0 l0 5.67 z"/><text class="f158" font-size="9.96" style="fill:#000000"><tspan x="183.7" y="66.5" textLength="284.3" dx="0,0,3.34,0,0,0.08,3.32,0,3.33,0,0,0,3.37,0,0,0,0.08,0,0,0,0,0,3.38,3.36,0,0,0,0,0,0,0,0,0,0.12,0,3.33,0,0,0,3.39,0,0,0,0,0,0,0.11,0,0,3.32,0,0,0,0,0,3.43,0,0,0,0">L.Earletal.:DevelopingaSingle-PilotLineOperationsSafetyAudit</tspan>&#8203;<tspan x="556.9" y="67.7" textLength="10">51</tspan></text><text class="f158" font-size="7.97" style="fill:#000000"><tspan x="85" y="775.3" textLength="6.3" class="f166">&#xd3;</tspan>&#8203;<tspan x="93.9" y="775.3" textLength="80.8" dx="0,0,0,0,2.6,0,0,0,0,0,0,2.61,0,0,0,0,0,0,0,0,0">2012HogrefePublishing</tspan>&#8203;<tspan x="332.8" y="775.3" textLength="160.2" class="f170" dx="0,-0.45,0,0,0,0,0,0,2.65,0,0,0,0,0,0,0,-0.1,0,2.68,0,0,2.62,0,0,0,0,0,0,2.6,0,0,0,0,2.56,0,0,0,0,0,0">AviationPsychologyandAppliedHumanFactors</tspan>&#8203;<tspan x="495.6" y="775.3" textLength="71.4" dx="0,0,0,0,0,2.6,-1.02,0,0,2.64,0,0,0,0,0,0,0,0,0">2012;Vol.2(2):49&#x2013;61</tspan></text><path style="fill:#e5e5e5" d="M595.22 456.21 l39.68 0 l0 -221.1 l-39.68 0 l0 221.1 z"/><text class="f175" font-size="11.96" style="fill:#000000" transform="matrix(0,1,-1,0,0,0)"><tspan x="301.9" y="-605.5" textLength="87.4" dx="0,0,0,0,0,0,0,0,4.05,0,0,0,0,0,0">OriginalArticle</tspan></text><text class="f156" font-size="8.00" style="fill:#000000;fill-opacity:0.5" transform="matrix(0,-1,1,0,0,0)"><tspan x="-597.1" y="16.7" textLength="334.4">This document is copyrighted by the American Psychological Association or one of its allied publishers.</tspan>&#8203;<tspan x="-597.1" y="25.8" textLength="352.4">This article is intended solely for the personal use of the individual user and is not to be disseminated broadly.</tspan></text>
</svg>
