<svg class="crocodoc-7gLDav crocodoc-page-svg" version="1.1"
    xmlns="http://www.w3.org/2000/svg"
    xmlns:xlink="http://www.w3.org/1999/xlink"
    xmlns:xhtml="http://www.w3.org/1999/xhtml"
    xml:space="preserve" width="651.855pt" height="841.776pt" viewBox="0 0 651.855 841.776">
<xhtml:link href="stylesheet.css" type="text/css" rel="stylesheet" />
<style>
svg.crocodoc-7gLDav { isolation:isolate; }
.crocodoc-7gLDav tspan { white-space:pre; direction:ltr; unicode-bidi:bidi-override; }
.crocodoc-7gLDav path { fill:transparent; }
.crocodoc-7gLDav [mbm="1"] { opacity:0; }
.crocodoc-7gLDav [mbm="2"] { opacity:0.3; }
.crocodoc-7gLDav [mbm="3"] { opacity:0.5; }
@supports (mix-blend-mode: multiply) {
.crocodoc-7gLDav [mbm] { opacity:1; }
}

.crocodoc-7gLDav .s1 { fill:#000000 }
</style>
<defs>

</defs>
<path class="s1" d="M0 28.23 l16.95 0 l0 -0.28 l-16.95 0 l0 0.28 z"/><path class="s1" d="M27.95 16.95 l0.28 0 l0 -16.95 l-0.28 0 l0 16.95 z"/><path class="s1" d="M623.56 16.95 l0.28 0 l0 -16.95 l-0.28 0 l0 16.95 z"/><path class="s1" d="M634.85 28.23 l17.01 0 l0 -0.28 l-17.01 0 l0 0.28 z"/><path class="s1" d="M634.85 813.77 l17.01 0 l0 -0.28 l-17.01 0 l0 0.28 z"/><path class="s1" d="M623.56 841.76 l0.28 0 l0 -16.99 l-0.28 0 l0 16.99 z"/><path class="s1" d="M27.95 841.76 l0.28 0 l0 -16.99 l-0.28 0 l0 16.99 z"/><path class="s1" d="M0 813.77 l16.95 0 l0 -0.28 l-16.95 0 l0 0.28 z"/><path style="fill:#e5e5e5" d="M219.06 752.94 l104.6 0 l0 -654.52 l-104.6 0 l0 654.52 z"/><path class="s1" d="M249.73 752.94 l0.51 0 l0 -654.52 l-0.51 0 l0 654.52 z"/><path class="s1" d="M219.12 752.94 l0.51 0 l0 -654.46 l-0.51 0 l0 654.46 z"/><path class="s1" d="M437.16 752.94 l0.51 0 l0 -654.46 l-0.51 0 l0 654.46 z"/><path class="s1" d="M233.97 752.94 l0.51 0 l0 -481.49 l-0.51 0 l0 481.49 z"/><path class="s1" d="M233.97 332.84 l0.51 0 l0 -234.37 l-0.51 0 l0 234.37 z"/><text class="f182" font-size="8.47" style="fill:#000000" transform="matrix(0,-1,1,0,0,0)"><tspan x="-752.94" y="181.30" textLength="70.74" class="f163" font-size="13.95" dx="0,0,0,0,0,0,0,0,4.7">AppendixB</tspan>&#8203;<tspan x="-752.94" y="205.23" textLength="169.16" class="f163" font-size="11.96" dx="0,0,0,0,0,0,4.08,0,0,0,0,0,0,0,0,0,4.09,0,0,0,0,0,0,0,0">ThreatManagementWorksheet</tspan>&#8203;<tspan x="-653.27" y="230.06" textLength="455.15" dx="0,0,0,-0.07,0,0,0,2.86,2.8,0,0,0,0,0,2.86,0,2.72,0,0,-0.05,0,0,2.81,0,0,0,2.87,0,0,0,0,0,0,0,0,2.85,0,0,0,0,0,0,2.85,0,0,2.84,0,0,0,0,0,0,0,2.84,0,2.85,0,0,2.84,0,0,0,0,2.84,0,0,2.83,-0.07,0,0,0,0,-0.1,2.82,0,0,0,0,0,2.87,0,0,0,0,0,0,0,0,0,2.88,0,2.79,0,0,0,0,0,0,0,2.9,0,0,0,0,0">Threats&#x2013;Eventsorerrorsthatoriginateoutsidethein&#xfb02;uenceofthepilotbutrequireactivemanagementtomaintainsafety</tspan>&#8203;<tspan x="-752.94" y="245.08" textLength="36.78" dx="0,0,0,-0.07,0,0,2.83,0">ThreatID</tspan>&#8203;<tspan x="-525.94" y="245.08" textLength="64.29" class="f137" dx="0,0,0,0,0,0,2.86,0,0,0,0,0,0,0,0,0,0">Threatdescription</tspan>&#8203;<tspan x="-220.42" y="245.08" textLength="70.92" class="f137" dx="0,0,0,0,0,0,2.86,0,0,0,0,0,0,0,0,0">Threatmanagement</tspan>&#8203;<tspan x="-654.75" y="260.67" textLength="45.06" dx="0,0,0,0,0,0,0,0,2.86,0,0">Describethe</tspan>&#8203;<tspan x="-654.75" y="270.65" textLength="21.72" dx="0,0,0,-0.05,0,0">threat</tspan>&#8203;<tspan x="-548.28" y="260.67" textLength="53.56" dx="0,0,0,-0.07,0,0,2.83,0,0,0,2.85">Threatcode&amp;</tspan>&#8203;<tspan x="-548.28" y="270.65" textLength="44.52" dx="0,0,0,0,0,0,0,0,2.85,0,0,0">altitudethat</tspan>&#8203;<tspan x="-548.28" y="280.63" textLength="56.57" dx="0,0,0,-0.1,0,0,2.89,0,0,0,0,0,-0.07,0">threatoccurred</tspan>&#8203;<tspan x="-430.36" y="260.67" textLength="52.21" dx="0,0,0,0,0,2.83,0,2.85,0,0,0,0">Phaseof&#xfb02;ight</tspan>&#8203;<tspan x="-430.36" y="270.65" textLength="57.3" class="f158" font-size="7.97" dx="0,0,2.64,0,0,0,0,-0.05,0,0,0,0,0,0,-0.53,0,0">1.Pre-depart/Taxi</tspan>&#8203;<tspan x="-430.36" y="280.63" textLength="54.73" class="f158" font-size="7.97" dx="0,0,2.64,-0.51,0,0,0,0,-0.1,0,0,-0.05,0,0,0">2.Takeoff/Climb</tspan>&#8203;<tspan x="-430.36" y="290.61" textLength="29.18" class="f158" font-size="7.97" dx="0,0,2.64,0,0,0,0,0">3.Cruise</tspan>&#8203;<tspan x="-430.36" y="300.53" textLength="97.58" class="f158" font-size="7.97" dx="0,0,2.64,0,0,0,0,0,0,0,0,0,0,0,-0.06,0,0,0,0,0,0,-0.04,0,0,0,0">4.Descend/Approach/Landing</tspan>&#8203;<tspan x="-430.36" y="310.51" textLength="31.25" class="f158" font-size="7.97" dx="0,0,2.64,-0.51,0,0,0,0,0">5.Taxi-in</tspan>&#8203;<tspan x="-271.45" y="260.67" textLength="37.96">Effectively</tspan>&#8203;<tspan x="-271.45" y="270.65" textLength="36.95">managed?</tspan>&#8203;<tspan x="-271.45" y="280.63" textLength="36.0" class="f158" dx="0,0,-0.76,0,2.79,2.87,0,0">(Yes/No)</tspan>&#8203;<tspan x="-172.01" y="260.67" textLength="45.23" dx="0,0,0,2.84,0,0,2.82,0,0">Howdidthe</tspan>&#8203;<tspan x="-172.01" y="270.65" textLength="57.83" dx="0,0,0,0,0,2.84,0,0,0,0,0,2.8,0">pilotmanageor</tspan>&#8203;<tspan x="-172.01" y="280.63" textLength="54.47" dx="0,0,0,0,0,0,0,0,0,2.82,0,0">mismanagethe</tspan>&#8203;<tspan x="-172.01" y="290.61" textLength="25.89" dx="0,0,0,-0.1,0,0,0">threat?</tspan>&#8203;<tspan x="-172.01" y="300.53" textLength="45.48" class="f158" dx="0,0,0,0,0,0,0,0,0,2.85,0,0">(Describethe</tspan>&#8203;<tspan x="-172.01" y="310.51" textLength="73.53" class="f158" dx="0,0,0,0,0,0,0,0,2.85,0,2.78,0,0,2.87,0,0,0,0,0">responsetothethreat</tspan>&#8203;<tspan x="-172.01" y="320.49" textLength="59.64" class="f158" dx="0,0,0,2.8,0,0,2.82,0,0,0,0,0,0,0">andtheoutcome)</tspan>&#8203;<tspan x="-752.94" y="332.45" textLength="9.87">T1</tspan>&#8203;<tspan x="-752.94" y="352.35" textLength="9.87">T2</tspan>&#8203;<tspan x="-752.94" y="372.30" textLength="9.87">T3</tspan>&#8203;<tspan x="-752.94" y="392.20" textLength="9.87">T4</tspan>&#8203;<tspan x="-752.94" y="412.16" textLength="9.87">T5</tspan>&#8203;<tspan x="-752.94" y="432.06" textLength="9.87">T6</tspan></text><path style="fill:#b2b2b2" d="M84.98 76.48 l481.89 0 l0 -5.67 l-481.89 0 l0 5.67 z"/><text class="f158" font-size="9.96" style="fill:#000000"><tspan x="183.74" y="66.50" textLength="284.3" dx="0,0,3.34,0,0,0.08,3.32,0,3.33,0,0,0,3.37,0,0,0,0.08,0,0,0,0,0,3.38,3.36,0,0,0,0,0,0,0,0,0,0.12,0,3.33,0,0,0,3.39,0,0,0,0,0,0,0.11,0,0,3.32,0,0,0,0,0,3.43,0,0,0,0">L.Earletal.:DevelopingaSingle-PilotLineOperationsSafetyAudit</tspan>&#8203;<tspan x="556.89" y="67.75" textLength="9.96">61</tspan></text><text class="f158" font-size="7.97" style="fill:#000000"><tspan x="84.98" y="775.28" textLength="6.3" class="f166">&#xd3;</tspan>&#8203;<tspan x="93.94" y="775.28" textLength="80.79" dx="0,0,0,0,2.6,0,0,0,0,0,0,2.61,0,0,0,0,0,0,0,0,0">2012HogrefePublishing</tspan>&#8203;<tspan x="332.79" y="775.28" textLength="160.17" class="f170" dx="0,-0.45,0,0,0,0,0,0,2.65,0,0,0,0,0,0,0,-0.1,0,2.68,0,0,2.62,0,0,0,0,0,0,2.6,0,0,0,0,2.56,0,0,0,0,0,0">AviationPsychologyandAppliedHumanFactors</tspan>&#8203;<tspan x="495.61" y="775.28" textLength="71.35" dx="0,0,0,0,0,2.6,-1.02,0,0,2.64,0,0,0,0,0,0,0,0,0">2012;Vol.2(2):49&#x2013;61</tspan></text><path style="fill:#e5e5e5" d="M595.22 456.21 l39.68 0 l0 -221.1 l-39.68 0 l0 221.1 z"/><text class="f175" font-size="11.96" style="fill:#000000" transform="matrix(0,1,-1,0,0,0)"><tspan x="301.95" y="-605.54" textLength="87.38" dx="0,0,0,0,0,0,0,0,4.05,0,0,0,0,0,0">OriginalArticle</tspan></text><text class="f156" font-size="8.00" style="fill:#000000;fill-opacity:0.5" transform="matrix(0,-1,1,0,0,0)"><tspan x="-597.09" y="16.70" textLength="334.42">This document is copyrighted by the American Psychological Association or one of its allied publishers.</tspan>&#8203;<tspan x="-597.09" y="25.75" textLength="352.41">This article is intended solely for the personal use of the individual user and is not to be disseminated broadly.</tspan></text>
</svg>
