<svg class="crocodoc-7gLDav crocodoc-page-svg" version="1.1"
    xmlns="http://www.w3.org/2000/svg"
    xmlns:xlink="http://www.w3.org/1999/xlink"
    xmlns:xhtml="http://www.w3.org/1999/xhtml"
    xml:space="preserve" width="651.855pt" height="841.776pt" viewBox="0 0 651.855 841.776">
<xhtml:link href="stylesheet.css" type="text/css" rel="stylesheet" />
<style>
svg.crocodoc-7gLDav { isolation:isolate; }
.crocodoc-7gLDav tspan { white-space:pre; direction:ltr; unicode-bidi:bidi-override; }
.crocodoc-7gLDav path { fill:transparent; }
.crocodoc-7gLDav [mbm="1"] { opacity:0; }
.crocodoc-7gLDav [mbm="2"] { opacity:0.3; }
.crocodoc-7gLDav [mbm="3"] { opacity:0.5; }
@supports (mix-blend-mode: multiply) {
.crocodoc-7gLDav [mbm] { opacity:1; }
}

.crocodoc-7gLDav .s1 { fill:#000000 }
</style>
<defs>

</defs>
<path class="s1" d="M0 28.23 l16.95 0 l0 -0.28 l-16.95 0 l0 0.28 z"/><path class="s1" d="M27.95 16.95 l0.28 0 l0 -16.95 l-0.28 0 l0 16.95 z"/><path class="s1" d="M623.56 16.95 l0.28 0 l0 -16.95 l-0.28 0 l0 16.95 z"/><path class="s1" d="M634.85 28.23 l17.01 0 l0 -0.28 l-17.01 0 l0 0.28 z"/><path class="s1" d="M634.85 813.77 l17.01 0 l0 -0.28 l-17.01 0 l0 0.28 z"/><path class="s1" d="M623.56 841.76 l0.28 0 l0 -16.99 l-0.28 0 l0 16.99 z"/><path class="s1" d="M27.95 841.76 l0.28 0 l0 -16.99 l-0.28 0 l0 16.99 z"/><path class="s1" d="M0 813.77 l16.95 0 l0 -0.28 l-16.95 0 l0 0.28 z"/><path style="fill:#e5e5e5" d="M412.95 752.94 l13.32 0 l0 -654.52 l-13.32 0 l0 654.52 z"/><path style="fill:#e5e5e5" d="M301.27 752.94 l94.68 0 l0 -654.52 l-94.68 0 l0 654.52 z"/><path style="fill:#e5e5e5" d="M161.23 752.94 l118.49 0 l0 -654.52 l-118.49 0 l0 654.52 z"/><path class="s1" d="M413.23 752.94 l0.51 0 l0 -654.52 l-0.51 0 l0 654.52 z"/><path class="s1" d="M426.33 752.94 l0.51 0 l0 -654.52 l-0.51 0 l0 654.52 z"/><path class="s1" d="M300.7 752.94 l0.51 0 l0 -654.52 l-0.51 0 l0 654.52 z"/><path class="s1" d="M315.21 752.94 l0.51 0 l0 -654.52 l-0.51 0 l0 654.52 z"/><path class="s1" d="M161.07 752.71 l0.45 0 l0 -654.52 l-0.45 0 l0 654.52 z"/><path class="s1" d="M493.4 752.71 l0.51 0 l0 -654.52 l-0.51 0 l0 654.52 z"/><path class="s1" d="M175.92 752.71 l0.45 0 l0 -107.21 l-0.45 0 l0 107.21 z"/><path class="s1" d="M175.92 653.9 l0.45 0 l0 -87.7 l-0.45 0 l0 87.7 z"/><path class="s1" d="M175.92 574.64 l0.45 0 l0 -68.15 l-0.45 0 l0 68.15 z"/><path class="s1" d="M175.92 514.94 l0.45 0 l0 -82.2 l-0.45 0 l0 82.2 z"/><path class="s1" d="M175.92 441.18 l0.45 0 l0 -63.89 l-0.45 0 l0 63.89 z"/><path class="s1" d="M175.92 385.74 l0.45 0 l0 -69.28 l-0.45 0 l0 69.28 z"/><path class="s1" d="M175.92 324.91 l0.45 0 l0 -53.97 l-0.45 0 l0 53.97 z"/><path class="s1" d="M175.92 279.33 l0.45 0 l0 -139.69 l-0.45 0 l0 139.69 z"/><path class="s1" d="M175.92 148.03 l0.45 0 l0 -49.83 l-0.45 0 l0 49.83 z"/><text class="f158" font-size="8.47" style="fill:#000000" transform="matrix(0,-1,1,0,0,0)"><tspan x="-752.7" y="121" textLength="71.4" class="f163" font-size="13.95" dx="0,0,0,0,0,0,0,0,4.64">AppendixA</tspan>&#8203;<tspan x="-752.7" y="146.1" textLength="160.4" class="f163" font-size="11.96" dx="0,0,0,0,0,3.98,0,0,0,0,0,0,0,0,0,4.09,0,0,0,0,0,0,0,0">ErrorManagementWorksheet</tspan>&#8203;<tspan x="-557.6" y="172" textLength="60.7" class="f137" dx="0,0,0,0,0,2.85,0,0,0,0,0,0,0,0,0,0">Errordescription</tspan>&#8203;<tspan x="-305.9" y="172" textLength="86.3" class="f137" dx="0,0,0,0,0,2.85,0,0,0,0,0,0,0,0,0,0,0,0,0,0,0">Errorresponse/Outcome</tspan>&#8203;<tspan x="-752.7" y="187" textLength="33" class="f182" dx="0,0,0,-0.06,0,2.78,0">ErrorID</tspan>&#8203;<tspan x="-702.9" y="187" textLength="42.8" dx="0,0,0,0,0,0,0,0,2.85,0,0">Describethe</tspan>&#8203;<tspan x="-702.9" y="197" textLength="46.1" dx="0,0,0,0,0,2.88,0,0,2.8,0,0">errorandany</tspan>&#8203;<tspan x="-702.9" y="206.9" textLength="34.4">associated</tspan>&#8203;<tspan x="-702.9" y="216.9" textLength="32.6">undesired</tspan>&#8203;<tspan x="-702.9" y="226.8" textLength="45.2" dx="0,0,0,0,0,0,0,0,2.85,0,0,0,0,0">aircraftstates</tspan>&#8203;<tspan x="-645.5" y="187" textLength="30.8" class="f182" dx="0,0,0,0,0,2.83,0">Phaseof</tspan>&#8203;<tspan x="-645.5" y="197" textLength="21.3" class="f182">Flight</tspan>&#8203;<tspan x="-645.5" y="206.9" textLength="57.3" font-size="7.97" dx="0,0,2.64,0,0,0,0,0,0,0,0,0,0,0,-0.54,0,0">1.Pre-depart/Taxi</tspan>&#8203;<tspan x="-645.5" y="216.9" textLength="54.7" font-size="7.97" dx="0,0,2.64,-0.51,0,0,0,0,-0.1,0,0,-0.05,0,0,0">2.Takeoff/Climb</tspan>&#8203;<tspan x="-645.5" y="226.8" textLength="29.2" font-size="7.97" dx="0,0,2.64,0,0,0,0,0">3.Cruise</tspan>&#8203;<tspan x="-645.5" y="236.8" textLength="37.9" font-size="7.97" dx="0,0,2.64,0,0,0,0,0,0,0">4.Descend/</tspan>&#8203;<tspan x="-636.9" y="246.8" textLength="33.3" font-size="7.97" dx="0,0,0,0,-0.05,0,0,0,0">Approach/</tspan>&#8203;<tspan x="-636.9" y="256.7" textLength="26.3" font-size="7.97" dx="0,0,0,0,-0.05,0,0">Landing</tspan>&#8203;<tspan x="-645.5" y="266.7" textLength="31.2" font-size="7.97" dx="0,0,2.64,-0.51,0,0,0,0,0">5.Taxi-in</tspan></text><text class="f182" font-size="8.47" style="fill:#000000" transform="matrix(0,-1,1,0,0,0)"><tspan x="-566.2" y="187" textLength="51.2" dx="0,-0.47,0,2.88,0,0,2.79,0,0,-0.05,0">Wastheerror</tspan>&#8203;<tspan x="-566.2" y="197" textLength="39.5" dx="0,0,-0.1,0,0,0,0,0,0,0">pro&#xfb01;ciency</tspan>&#8203;<tspan x="-566.2" y="206.9" textLength="24.8">based?</tspan>&#8203;<tspan x="-566.2" y="216.9" textLength="40.7" class="f158" dx="0,0,-0.81,0,2.85,0,2.85,0,0">(YesorNo)</tspan>&#8203;<tspan x="-506.5" y="187" textLength="41.4" dx="0,0,0,-0.12,0,2.84,-0.59,0,0">ErrorType</tspan>&#8203;<tspan x="-506.5" y="197" textLength="42.6" class="f158" font-size="7.97" dx="0,0,2.64,0,0,0,-0.05,0,0,0,0,-0.05,0">1.Intentional</tspan>&#8203;<tspan x="-497.9" y="206.9" textLength="49.9" class="f158" font-size="7.97" dx="0,-0.05,0,0,0,0,0,-0.05,0,0,0,0,0">Noncompliance</tspan>&#8203;<tspan x="-506.5" y="216.9" textLength="65.3" class="f158" font-size="7.97" dx="0,0,2.64,-0.05,0,0,0,0,0,0,2.69,-0.05,0,0,0,0,0,0">2.AircraftHandling</tspan>&#8203;<tspan x="-506.5" y="226.8" textLength="42.6" class="f158" font-size="7.97" dx="0,0,2.64,0,-0.05,0,0,0,0,0,-0.06,0">3.Procedural</tspan>&#8203;<tspan x="-506.5" y="236.8" textLength="59.4" class="f158" font-size="7.97" dx="0,0,2.64,0,-0.05,0,0,-0.05,0,0,0,0,0,0,0">4.Communication</tspan>&#8203;<tspan x="-432.7" y="187" textLength="20.9" dx="0,0,0,-0.12,0">Error</tspan>&#8203;<tspan x="-432.7" y="197" textLength="28.4" dx="0,0,0,0,2.8">Code&amp;</tspan>&#8203;<tspan x="-432.7" y="206.9" textLength="27.3">altitude</tspan>&#8203;<tspan x="-432.7" y="216.9" textLength="18.9" dx="0,0,0,-0.1,0">error</tspan>&#8203;<tspan x="-432.7" y="226.8" textLength="32" dx="0,0,0,0,0,0,-0.07,0">occurred</tspan>&#8203;<tspan x="-377.3" y="187" textLength="17.4">Who</tspan>&#8203;<tspan x="-377.3" y="197" textLength="38">committed</tspan>&#8203;<tspan x="-377.3" y="206.9" textLength="37.1" dx="0,0,0,2.84,0,0,-0.1,0,0">theerror?</tspan>&#8203;<tspan x="-316.5" y="187" textLength="17.4">Who</tspan>&#8203;<tspan x="-316.5" y="197" textLength="29.6">detected</tspan>&#8203;<tspan x="-316.5" y="206.9" textLength="37.1" dx="0,0,0,2.84,0,0,-0.1,0,0">theerror?</tspan>&#8203;<tspan x="-270.9" y="187" textLength="20.9" dx="0,0,0,-0.06,0">Error</tspan>&#8203;<tspan x="-270.9" y="197" textLength="33.6">Response</tspan>&#8203;<tspan x="-270.9" y="206.9" textLength="67.2" class="f158" font-size="7.97" dx="0,0,2.64,0,0,0,0,0,0,0,2.65,2.65,0,0,0,0,0">1.Detected&amp;action</tspan>&#8203;<tspan x="-270.9" y="216.9" textLength="50.6" class="f158" font-size="7.97" dx="0,0,2.64,0,0,0,0,0,0,0,2.65,0,0">2.Detectedand</tspan>&#8203;<tspan x="-262.3" y="226.8" textLength="24.1" class="f158" font-size="7.97">ignored</tspan>&#8203;<tspan x="-270.9" y="236.8" textLength="44.5" class="f158" font-size="7.97" dx="0,0,2.64,0,0,0,0,0,0,-0.05,0,0">3.Undetected</tspan></text><text class="f158" font-size="7.97" style="fill:#000000" transform="matrix(0,-1,1,0,0,0)"><tspan x="-170.8" y="187" textLength="56.3" class="f182" font-size="8.47" dx="0,0,0,-0.06,0,2.84,0,0,0,0,0,0">ErrorOutcome</tspan>&#8203;<tspan x="-170.8" y="197" textLength="58.5" dx="0,0,2.64,0,0,0,0,0,0,-0.07,0,0,0,0,0,0,0">1.Inconsequential</tspan>&#8203;<tspan x="-170.8" y="206.9" textLength="58" dx="0,0,2.64,0,0,0,0,0,0,0,-0.04,2.65,0,0,0,0">2.Undesiredstate</tspan>&#8203;<tspan x="-170.8" y="216.9" textLength="60.1" dx="0,0,2.64,0,0,0,0,0,0,0,0,0,2.63,0,0,0,0">3.Additionalerror</tspan></text><text class="f182" font-size="8.47" style="fill:#000000" transform="matrix(0,-1,1,0,0,0)"><tspan x="-752.7" y="294.3" textLength="9.9">E1</tspan>&#8203;<tspan x="-432.7" y="288.6" textLength="16.9" class="f158">&#x2013;&#x2013;&#x2013;&#x2013;</tspan>&#8203;<tspan x="-588.7" y="309.9" textLength="67.3" class="f137" dx="0,0,0,0,0,2.85,0,0,0,0,0,0,0,0,0">Errormanagement</tspan>&#8203;<tspan x="-308.6" y="309.9" textLength="86.2" class="f137" dx="0,0,0,0,0,0,0,0,0,2.89,0,0,0,0,0,0,0,2.87,0,0,0,0,0">Undesiredaircraftstates</tspan>&#8203;<tspan x="-752.7" y="325.5" textLength="88" dx="0,0,0,-0.06,0,2.78,0,16.79,0,0,0,0,0,0,0,0,0">ErrorIDAssociated</tspan>&#8203;<tspan x="-702.9" y="335.5" textLength="22.8" dx="0,0,0,0,2.83">witha</tspan>&#8203;<tspan x="-702.9" y="345.5" textLength="25.9" dx="0,0,0,-0.1,0,0,0">threat?</tspan>&#8203;<tspan x="-702.9" y="355.4" textLength="25.9" dx="0,0,0,2.85,-0.86,0,0">(IfYes,</tspan>&#8203;<tspan x="-702.9" y="365.4" textLength="43" dx="0,0,0,0,0,2.87,0,0,-0.1,0,0">enterthreat</tspan>&#8203;<tspan x="-702.9" y="375.4" textLength="48.9" dx="0,0,2.85,2.8,0,0,0,0,2.84,0,0">ID&#x2013;e.g.,T2)</tspan>&#8203;<tspan x="-645.5" y="325.5" textLength="189.3" dx="0,0,0,2.84,0,0,2.82,0,0,2.84,0,0,0,0,2.84,0,0,0,0,0,2.86,0,2.84,0,0,0,0,0,0,0,0,2.88,0,0,2.79,0,0,-0.05,0,0">Howdidthepilotmanageormismanagetheerror?</tspan>&#8203;<tspan x="-645.5" y="335.5" textLength="200.3" class="f158" dx="0,0,0,0,0,0,0,0,0,2.9,0,0,2.82,0,0,0,0,0,0,0,2.85,0,2.83,0,0,2.82,0,0,0,0,2.88,0,0,2.8,0,0,2.87,0,0,0,0,0,0,0,2.83,0,0,0">(Describetheresponsetotheerrorandtheoutcome)Also</tspan>&#8203;<tspan x="-645.5" y="345.5" textLength="182.5" class="f158" dx="0,0,0,0,0,0,0,0,2.88,0,0,2.82,0,0,0,0,0,0,0,2.85,0,2.83,0,0,2.85,0,0,0,0,0,0,0,0,0,2.83,0,0,2.84,0,0,2.85,0,0">describetheresponsetoanyassociatedUASandthe</tspan>&#8203;<tspan x="-645.5" y="355.4" textLength="28.9" class="f158">outcome</tspan>&#8203;<tspan x="-432.7" y="325.5" textLength="36.8" dx="0,-0.47,0,2.82,0,0,0,-0.06">Wasthere</tspan>&#8203;<tspan x="-432.7" y="335.5" textLength="47" dx="0,0,2.83,0,0,0,0,0,0,-0.1,0">anundesired</tspan>&#8203;<tspan x="-432.7" y="345.5" textLength="27.2" dx="0,0,0,-0.07,0,0,0,0">aircraft</tspan>&#8203;<tspan x="-432.7" y="355.4" textLength="39.4" dx="0,0,0,0,0,2.85,0,0,0,0">state(Y/N)</tspan>&#8203;<tspan x="-377.3" y="325.5" textLength="52.4" dx="0,0,0,2.84,0,0,0,2.8,0,0">UAScodeand</tspan>&#8203;<tspan x="-377.3" y="335.5" textLength="47" dx="0,0,0,0,0,0,0,0,2.85,0,0">altitudeUAS</tspan>&#8203;<tspan x="-377.3" y="345.5" textLength="32" dx="0,0,0,0,0,0,-0.07,0">occurred</tspan>&#8203;<tspan x="-316.5" y="325.5" textLength="17.4">Who</tspan>&#8203;<tspan x="-316.5" y="335.5" textLength="29.6">detected</tspan>&#8203;<tspan x="-316.5" y="345.5" textLength="35" dx="0,0,0,2.84,0,0,0">theUAS?</tspan>&#8203;<tspan x="-259.7" y="325.5" textLength="16.8">UAS</tspan>&#8203;<tspan x="-259.7" y="335.5" textLength="31.1" dx="0,-0.07,0,0,0,0,0,0">response</tspan>&#8203;<tspan x="-259.7" y="345.5" textLength="45.3" class="f158" font-size="7.97" dx="0,0,2.64,0,0,0,-0.04,0,0,0,2.66">1.Detected&amp;</tspan>&#8203;<tspan x="-251" y="355.4" textLength="19.2" class="f158" font-size="7.97">action</tspan>&#8203;<tspan x="-259.7" y="365.4" textLength="45.3" class="f158" font-size="7.97" dx="0,0,2.64,0,0,0,-0.04,0,0,0,2.66">2.Detected&amp;</tspan>&#8203;<tspan x="-251" y="375.4" textLength="24.1" class="f158" font-size="7.97">ignored</tspan>&#8203;<tspan x="-259.7" y="385.3" textLength="44.5" class="f158" font-size="7.97" dx="0,0,2.64,0,0,0,-0.05,0,0,0,0,0">3.Undetected</tspan>&#8203;<tspan x="-170.8" y="325.5" textLength="49.9" dx="0,0,0,2.84,0,0,0,0,0,0">UASoutcome</tspan>&#8203;<tspan x="-170.8" y="335.5" textLength="58.5" class="f158" font-size="7.97" dx="0,0,2.64,0,0,0,0,0,0,-0.07,0,0,0,0,0,0,0">1.Inconsequential</tspan>&#8203;<tspan x="-170.8" y="345.5" textLength="60.1" class="f158" font-size="7.97" dx="0,0,2.64,0,0,0,0,0,0,0,0,0,2.63,0,0,0,0">2.Additionalerror</tspan></text><text class="f158" font-size="8.47" style="fill:#000000" transform="matrix(0,-1,1,0,0,0)"><tspan x="-752.7" y="407.2" textLength="9.9" class="f182">E1</tspan>&#8203;<tspan x="-377.3" y="407.2" textLength="16.9">&#x2013;&#x2013;&#x2013;&#x2013;</tspan>&#8203;<tspan x="-484.8" y="422.9" textLength="118.7" class="f182" dx="0,0,0,2.86,0,0,0,0,0,0,0,0,0,0,0,0,0,0,0,0,0,2.89,0,0,0,0">WhoCommitted/DetectedCodes</tspan>&#8203;<tspan x="-752.7" y="438.5" textLength="41.2" class="f182" dx="0,0,0,0,0,0,2.83,0,-0.09,0">Flightcrew</tspan>&#8203;<tspan x="-645.5" y="449.9" textLength="34.3" dx="0,2.85,0,0,0,0,0">5Nobody</tspan>&#8203;<tspan x="-506.5" y="438.5" textLength="47.4" class="f182" dx="0,0,0,0,0,2.83,0,0,0,0,0">Otherpeople</tspan>&#8203;<tspan x="-432.7" y="449.9" textLength="56.1" dx="0,0,2.81,0,0,0,0,0,2.83,0,0,0">10Groundcrew</tspan>&#8203;<tspan x="-259.7" y="438.5" textLength="29.1" class="f182" dx="0,0,0,-0.05,0,0,0,0">Aircraft</tspan>&#8203;<tspan x="-752.7" y="448.4" textLength="22.8" dx="0,2.8,0,0,0,0">1Pilot</tspan>&#8203;<tspan x="-645.5" y="459.8" textLength="91.8" dx="0,2.85,0,0,0,0,0,0,0,2.84,0,0,0,0,2.86,0,0,0,0,0,0,0">6Observer(onlycomplete</tspan>&#8203;<tspan x="-638.4" y="469.8" textLength="94.9" dx="0,0,2.81,0,0,0,0,0,0,0,2.87,0,0,2.8,0,2.83,0,0,0,0,0,0,0,0">ifobserverhadtointervene</tspan>&#8203;<tspan x="-638.4" y="479.7" textLength="35.2" dx="0,0,0,2.84,0,0,0,0,0,0">forsafety)</tspan>&#8203;<tspan x="-506.5" y="450.1" textLength="23" dx="0,2.8,-0.86,0">8ATC</tspan>&#8203;<tspan x="-432.7" y="459.8" textLength="54.3" dx="0,-0.27,2.8,0,0,0,0,0,0,0,0,0,0">11Maintenance</tspan>&#8203;<tspan x="-259.7" y="448.4" textLength="66.9" dx="0,0,2.81,0,0,0,0,0,0,0,2.91,0,0,0,0,0,0">20Aircraftsystems</tspan>&#8203;<tspan x="-752.7" y="458.5" textLength="75.4" dx="0,2.8,0,0,0,0,2.86,0,0,0,2.84,0,0,0,0,0">3Othercrewmember</tspan>&#8203;<tspan x="-506.5" y="458.5" textLength="36.8" dx="0,2.8,0,0,0,0,0,0,0">9Dispatch</tspan>&#8203;<tspan x="-259.7" y="478.3" textLength="21.3" class="f182">Other</tspan>&#8203;<tspan x="-752.7" y="468.5" textLength="70.3" dx="0,2.8,0,0,2.84,0,0,0,2.9,0,0,0,0,0,0">4Allcrewmembers</tspan>&#8203;<tspan x="-259.7" y="488.3" textLength="111.6" dx="0,0,2.81,0,0,0,0,0,0,0,2.91,0,2.81,0,0,2.8,0,0,0,0,2.83,0,0,0,0">99Detectedbyanyothermeans</tspan>&#8203;<tspan x="-752.7" y="505.8" textLength="417.9" font-size="8.97" dx="0,0,0,0,0,3.01,-0.94,0,3.01,2.95,0,0,3.02,0,0,0,0,0,3,0,0,0,0,0,0,0,3.04,0,0,2.98,3.01,0,0,0,0,0,0,0,0,3,0,0,0,0,0,0,0,3.03,0,0,0,0,0,3,-0.24,0,0,2.98,0,0,0,0,0,0,0,0,0,0,0,0,0,3.02,0,3.02,0,0,2.95,0,0,0,3.01,0,0,0,0,0,0,0,0,0,0,0,0,0">Note.ATC=airtraf&#xfb01;ccontrol;UAS=undesiredaircraftstate.WithacknowledgmenttotheLOSACollaborative.</tspan></text><path style="fill:#b2b2b2" d="M84.98 76.48 l481.89 0 l0 -5.67 l-481.89 0 l0 5.67 z"/><text class="f158" font-size="9.96" style="fill:#000000"><tspan x="85" y="66.5" textLength="10">60</tspan>&#8203;<tspan x="183.7" y="66.5" textLength="284.3" dx="0,0,3.34,0,0,0.08,3.32,0,3.33,0,0,0,3.37,0,0,0,0.08,0,0,0,0,0,3.38,3.36,0,0,0,0,0,0,0,0,0,0.12,0,3.33,0,0,0,3.39,0,0,0,0,0,0,0.11,0,0,3.32,0,0,0,0,0,3.43,0,0,0,0">L.Earletal.:DevelopingaSingle-PilotLineOperationsSafetyAudit</tspan></text><text class="f158" font-size="7.97" style="fill:#000000"><tspan x="85" y="775.3" textLength="160.2" class="f170" dx="0,-0.45,0,0,0,0,0,0,2.65,0,0,0,0,0,0,0,-0.1,0,2.68,0,0,2.62,0,0,0,0,0,0,2.6,0,0,0,0,2.56,0,0,0,0,0,0">AviationPsychologyandAppliedHumanFactors</tspan>&#8203;<tspan x="247.8" y="775.3" textLength="71.4" dx="0,0,0,0,0,2.6,-1.02,0,0,2.64,0,0,0,0,0,0,0,0,0">2012;Vol.2(2):49&#x2013;61</tspan>&#8203;<tspan x="477.2" y="775.3" textLength="6.3" class="f166">&#xd3;</tspan>&#8203;<tspan x="486.1" y="775.3" textLength="80.8" dx="0,0,0,0,2.6,0,0,0,0,0,0,2.61,0,0,0,0,0,0,0,0,0">2012HogrefePublishing</tspan></text><path style="fill:#e5e5e5" d="M17.01 456.32 l39.63 0 l0 -221.1 l-39.63 0 l0 221.1 z"/><text class="f175" font-size="11.96" style="fill:#000000" transform="matrix(0,-1,1,0,0,0)"><tspan x="-389.5" y="46.3" textLength="87.4" dx="0,0,0,0,0,0,0,0,4.05,0,0,0,0,0,0">OriginalArticle</tspan></text><text class="f156" font-size="8.00" style="fill:#000000;fill-opacity:0.5" transform="matrix(0,-1,1,0,0,0)"><tspan x="-597.1" y="16.7" textLength="334.4">This document is copyrighted by the American Psychological Association or one of its allied publishers.</tspan>&#8203;<tspan x="-597.1" y="25.8" textLength="352.4">This article is intended solely for the personal use of the individual user and is not to be disseminated broadly.</tspan></text>
</svg>
